<svg width="480" height="480" viewBox="0 0 480 480" fill="none" xmlns="http://www.w3.org/2000/svg">
<rect x="52" y="89" width="390" height="308" fill="white"/>
<path fill-rule="evenodd" clip-rule="evenodd" d="M64 48C28.6538 48 0 76.6538 0 112V368C0 403.346 28.6538 432 64 432H416C451.346 432 480 403.346 480 368V112C480 76.6538 451.346 48 416 48H64ZM160 112H96V368H160V112ZM288 240V368H352V240V176H288V240Z" fill="black"/>
<path fill-rule="evenodd" clip-rule="evenodd" d="M288 112H224V176H288V240L352 176H416V112H352H288Z" fill="url(#paint0_radial_610_1354)"/>
<defs>
<radialGradient id="paint0_radial_610_1354" cx="0" cy="0" r="1" gradientUnits="userSpaceOnUse" gradientTransform="translate(255.5 217.405) rotate(-38.085) scale(170.881 208.762)">
<stop stop-color="#38C67B"/>
<stop offset="0.235294" stop-color="#448CE0"/>
<stop offset="0.45454" stop-color="#C42EB5"/>
<stop offset="0.660072" stop-color="#D23131"/>
<stop offset="0.833494" stop-color="#F87226"/>
<stop offset="1" stop-color="#EEC32B"/>
</radialGradient>
</defs>
</svg>
